<svg xmlns="http://www.w3.org/2000/svg" viewBox="0 0 100 100">
  <defs>
    <linearGradient id="shield-gradient" x1="0%" y1="0%" x2="100%" y2="100%">
      <stop offset="0%" style="stop-color:#14b8a6;stop-opacity:1" />
      <stop offset="100%" style="stop-color:#00d4ff;stop-opacity:1" />
    </linearGradient>
  </defs>
  <path fill="url(#shield-gradient)" d="M50 5 L90 20 V50 C90 75 70 90 50 95 C30 90 10 75 10 50 V20 Z"/>
  <path fill="#042f2e" d="M50 15 L80 27 V50 C80 70 65 82 50 86 C35 82 20 70 20 50 V27 Z"/>
  <path fill="#14b8a6" d="M45 45 L35 55 L45 65 L55 55 L45 45 M55 35 L45 45 L55 55 L65 45 L55 35"/>
</svg>

